<?xml version="1.0" encoding="UTF-8" standalone="no"?>
<!DOCTYPE svg PUBLIC "-//W3C//DTD SVG 1.1//EN"
 "http://www.w3.org/Graphics/SVG/1.1/DTD/svg11.dtd">
<!-- Generated by graphviz version 14.0.5 (0)
 -->
<!-- Title: main Pages: 1 -->
<svg width="595pt" height="259pt"
 viewBox="0.00 0.00 595.00 259.00" xmlns="http://www.w3.org/2000/svg" xmlns:xlink="http://www.w3.org/1999/xlink">
<g id="graph0" class="graph" transform="scale(1 1) rotate(0) translate(4 254.88)">
<title>main</title>
<polygon fill="white" stroke="none" points="-4,4 -4,-254.88 590.57,-254.88 590.57,4 -4,4"/>
<text xml:space="preserve" text-anchor="middle" x="293.29" y="-7.2" font-family="Times,serif" font-size="14.00">main</text>
<!-- n8 -->
<g id="node1" class="node">
<title>n8</title>
<text xml:space="preserve" text-anchor="middle" x="32.07" y="-95.45" font-family="Times,serif" font-size="14.00">next_state</text>
</g>
<!-- p2 -->
<g id="node10" class="node">
<title>p2</title>
<path fill="none" stroke="black" d="M174.72,-206.5C174.72,-206.5 110.72,-206.5 110.72,-206.5 104.72,-206.5 98.72,-200.5 98.72,-194.5 98.72,-194.5 98.72,-182.5 98.72,-182.5 98.72,-176.5 104.72,-170.5 110.72,-170.5 110.72,-170.5 174.72,-170.5 174.72,-170.5 180.72,-170.5 186.72,-176.5 186.72,-182.5 186.72,-182.5 186.72,-194.5 186.72,-194.5 186.72,-200.5 180.72,-206.5 174.72,-206.5"/>
<text xml:space="preserve" text-anchor="middle" x="142.72" y="-183.45" font-family="Times,serif" font-size="14.00">StateRegister</text>
</g>
<!-- n8&#45;&gt;p2 -->
<g id="edge7" class="edge">
<title>n8:e&#45;&gt;p2:w</title>
<path fill="none" stroke="#e6ab02" stroke-width="3" d="M60.42,-100.5C98.41,-100.5 65.28,-170.3 87.71,-185.57"/>
<polygon fill="#e6ab02" stroke="#e6ab02" stroke-width="3" points="83.77,-188.15 94.34,-187.33 85.57,-181.38 83.77,-188.15"/>
</g>
<!-- n9 -->
<g id="node2" class="node">
<title>n9</title>
<text xml:space="preserve" text-anchor="middle" x="257.6" y="-183.45" font-family="Times,serif" font-size="14.00">current_state</text>
</g>
<!-- c17 -->
<g id="node8" class="node">
<title>c17</title>
<polygon fill="none" stroke="black" points="347.35,-138 347.35,-187 438.1,-187 438.1,-138 347.35,-138"/>
<text xml:space="preserve" text-anchor="middle" x="360.22" y="-169.7" font-family="Times,serif" font-size="14.00">A</text>
<polyline fill="none" stroke="black" points="347.35,-162.5 373.1,-162.5"/>
<text xml:space="preserve" text-anchor="middle" x="360.22" y="-145.2" font-family="Times,serif" font-size="14.00">B</text>
<polyline fill="none" stroke="black" points="373.1,-138 373.1,-187"/>
<text xml:space="preserve" text-anchor="middle" x="392.72" y="-157.45" font-family="Times,serif" font-size="14.00">case</text>
<polyline fill="none" stroke="black" points="412.35,-138 412.35,-187"/>
<text xml:space="preserve" text-anchor="middle" x="425.22" y="-157.7" font-family="Times,serif" font-size="14.00">Y</text>
</g>
<!-- n9&#45;&gt;c17 -->
<g id="edge9" class="edge">
<title>n9:e&#45;&gt;c17:w</title>
<path fill="none" stroke="#d95f02" stroke-width="3" d="M292.47,-188.5C312.94,-188.5 319.51,-179.07 335.2,-175.83"/>
<polygon fill="#d95f02" stroke="#d95f02" stroke-width="3" points="332.21,-179.63 341.83,-175.19 331.54,-172.67 332.21,-179.63"/>
</g>
<!-- p1 -->
<g id="node9" class="node">
<title>p1</title>
<path fill="none" stroke="black" d="M444.97,-106.5C444.97,-106.5 340.47,-106.5 340.47,-106.5 334.47,-106.5 328.47,-100.5 328.47,-94.5 328.47,-94.5 328.47,-82.5 328.47,-82.5 328.47,-76.5 334.47,-70.5 340.47,-70.5 340.47,-70.5 444.97,-70.5 444.97,-70.5 450.97,-70.5 456.97,-76.5 456.97,-82.5 456.97,-82.5 456.97,-94.5 456.97,-94.5 456.97,-100.5 450.97,-106.5 444.97,-106.5"/>
<text xml:space="preserve" text-anchor="middle" x="392.72" y="-83.45" font-family="Times,serif" font-size="14.00">CombinationalLogic</text>
</g>
<!-- n9&#45;&gt;p1 -->
<g id="edge10" class="edge">
<title>n9:e&#45;&gt;p1:w</title>
<path fill="none" stroke="#d95f02" stroke-width="3" d="M292.47,-188.5C335.1,-188.5 291.65,-107.08 317.46,-91.17"/>
<polygon fill="#d95f02" stroke="#d95f02" stroke-width="3" points="315.17,-95.33 324.06,-89.57 313.52,-88.53 315.17,-95.33"/>
</g>
<!-- n9&#45;&gt;p2 -->
<g id="edge11" class="edge">
<title>n9:e&#45;&gt;p2:w</title>
<path fill="none" stroke="#d95f02" stroke-width="3" d="M293.44,-188.5C301.45,-188.5 298.26,-200.99 292.44,-206.5 229.9,-265.67 161.27,-265.67 98.72,-206.5 96.72,-204.61 95.03,-201.89 94,-199.14"/>
<polygon fill="#d95f02" stroke="#d95f02" stroke-width="3" points="96.23,-203.38 96.22,-192.79 89.62,-201.07 96.23,-203.38"/>
</g>
<!-- n10 -->
<g id="node3" class="node">
<title>n10</title>
<polygon fill="none" stroke="black" points="586.57,-155.04 586.57,-169.96 570.76,-180.5 548.39,-180.5 532.57,-169.96 532.57,-155.04 548.39,-144.5 570.76,-144.5 586.57,-155.04"/>
<text xml:space="preserve" text-anchor="middle" x="559.57" y="-157.45" font-family="Times,serif" font-size="14.00">out</text>
</g>
<!-- n11 -->
<g id="node4" class="node">
<title>n11</title>
<polygon fill="none" stroke="black" points="284.6,-35.04 284.6,-49.96 268.78,-60.5 246.42,-60.5 230.6,-49.96 230.6,-35.04 246.42,-24.5 268.78,-24.5 284.6,-35.04"/>
<text xml:space="preserve" text-anchor="middle" x="257.6" y="-37.45" font-family="Times,serif" font-size="14.00">in</text>
</g>
<!-- n11&#45;&gt;p1 -->
<g id="edge3" class="edge">
<title>n11:e&#45;&gt;p1:w</title>
<path fill="none" stroke="#1b9e77" d="M285.85,-42.5C309.15,-42.5 303.81,-74.64 317.7,-85.19"/>
<polygon fill="#1b9e77" stroke="#1b9e77" points="316.44,-88.46 327.03,-88.06 318.5,-81.77 316.44,-88.46"/>
</g>
<!-- n12 -->
<g id="node5" class="node">
<title>n12</title>
<polygon fill="none" stroke="black" points="62.72,-170.04 62.72,-184.96 44.77,-195.5 19.37,-195.5 1.42,-184.96 1.42,-170.04 19.37,-159.5 44.77,-159.5 62.72,-170.04"/>
<text xml:space="preserve" text-anchor="middle" x="32.07" y="-172.45" font-family="Times,serif" font-size="14.00">reset</text>
</g>
<!-- n12&#45;&gt;p2 -->
<g id="edge4" class="edge">
<title>n12:e&#45;&gt;p2:w</title>
<path fill="none" stroke="#7570b3" d="M62.72,-177.5C74.88,-177.5 79.54,-183.31 87.6,-186.48"/>
<polygon fill="#7570b3" stroke="#7570b3" points="86.77,-189.89 97.24,-188.23 88.02,-183 86.77,-189.89"/>
</g>
<!-- n13 -->
<g id="node6" class="node">
<title>n13</title>
<polygon fill="none" stroke="black" points="59.07,-224.04 59.07,-238.96 43.26,-249.5 20.89,-249.5 5.07,-238.96 5.07,-224.04 20.89,-213.5 43.26,-213.5 59.07,-224.04"/>
<text xml:space="preserve" text-anchor="middle" x="32.07" y="-226.45" font-family="Times,serif" font-size="14.00">clk</text>
</g>
<!-- n13&#45;&gt;p2 -->
<g id="edge5" class="edge">
<title>n13:e&#45;&gt;p2:w</title>
<path fill="none" stroke="#e7298a" d="M60.32,-231.5C81.34,-231.5 76.48,-202.56 88.19,-192.17"/>
<polygon fill="#e7298a" stroke="#e7298a" points="89,-195.59 97.3,-189 86.7,-188.98 89,-195.59"/>
</g>
<!-- v0 -->
<g id="node7" class="node">
<title>v0</title>
<ellipse fill="none" stroke="black" cx="257.6" cy="-134.5" rx="27" ry="18"/>
<text xml:space="preserve" text-anchor="middle" x="257.6" y="-129.45" font-family="Times,serif" font-size="14.00">2&#39;10</text>
</g>
<!-- v0&#45;&gt;c17 -->
<g id="edge12" class="edge">
<title>v0:e&#45;&gt;c17:w</title>
<path fill="none" stroke="#d95f02" stroke-width="3" d="M285.85,-134.5C309.4,-134.5 316.53,-145.82 335.08,-149.26"/>
<polygon fill="#d95f02" stroke="#d95f02" stroke-width="3" points="331.56,-152.47 341.83,-149.85 332.17,-145.5 331.56,-152.47"/>
</g>
<!-- x3 -->
<g id="node11" class="node">
<title>x3</title>
<ellipse fill="black" stroke="black" cx="494.77" cy="-162.5" rx="1.8" ry="1.8"/>
</g>
<!-- c17&#45;&gt;x3 -->
<g id="edge1" class="edge">
<title>c17:e&#45;&gt;x3:w</title>
<path fill="none" stroke="#66a61e" d="M439.1,-162.75C458.74,-162.75 466.3,-162.58 481.6,-162.52"/>
<polygon fill="#66a61e" stroke="#66a61e" points="481.47,-166.02 491.46,-162.5 481.45,-159.02 481.47,-166.02"/>
</g>
<!-- p1&#45;&gt;n8 -->
<g id="edge6" class="edge">
<title>p1:e&#45;&gt;n8:w</title>
<path fill="none" stroke="#e6ab02" stroke-width="3" d="M457.97,-88.5C465.99,-88.5 462.78,-100.98 456.97,-106.5 455.8,-107.62 224.35,-107.44 222.72,-107.5 150.04,-110.1 132.14,-116.05 59.45,-118.5 35.14,-119.32 22.39,-135.21 4.72,-118.5 2.72,-116.61 1.03,-113.89 0,-111.14"/>
<polygon fill="#e6ab02" stroke="#e6ab02" stroke-width="3" points="2.22,-115.38 2.22,-104.79 -4.38,-113.07 2.22,-115.38"/>
</g>
<!-- p2&#45;&gt;n9 -->
<g id="edge8" class="edge">
<title>p2:e&#45;&gt;n9:w</title>
<path fill="none" stroke="#d95f02" stroke-width="3" d="M186.72,-188.5C198.1,-188.5 203.41,-188.5 211.28,-188.5"/>
<polygon fill="#d95f02" stroke="#d95f02" stroke-width="3" points="208.18,-192 218.18,-188.5 208.18,-185 208.18,-192"/>
</g>
<!-- x3&#45;&gt;n10 -->
<g id="edge2" class="edge">
<title>x3:e&#45;&gt;n10:w</title>
<path fill="none" stroke="#1b9e77" d="M496.57,-162.5C507.95,-162.5 513.26,-162.5 521.13,-162.5"/>
<polygon fill="#1b9e77" stroke="#1b9e77" points="521.06,-166 531.06,-162.5 521.06,-159 521.06,-166"/>
</g>
</g>
</svg>
